<svg xmlns="http://www.w3.org/2000/svg" viewBox="0 0 360 92" width="360" height="92" role="img">

  <g transform="translate(5 8)">
    <circle cx="38" cy="38" r="31" fill="#fff" stroke="#EE5B2A" stroke-width="2"/>
    <path d="M9 38h58M38 9v58M16 22c14 7 30 7 44 0M16 54c14-7 30-7 44 0"
          fill="none" stroke="#EE5B2A" stroke-width="1.3" opacity=".9"/>
    <polygon points="38.00,20.00 40.76,31.35 50.73,25.27 44.65,35.24 56.00,38.00 44.65,40.76 50.73,50.73 40.76,44.65 38.00,56.00 35.24,44.65 25.27,50.73 31.35,40.76 20.00,38.00 31.35,35.24 25.27,25.27 35.24,31.35" fill="#007A3D"/>
  </g>
  <text x="82" y="57" font-family="Arial Black,Arial,Helvetica,sans-serif" font-size="42" font-weight="900" letter-spacing="-1" fill="#00833E">EVERGREEN</text>

</svg>